<?xml version="1.0" encoding="iso-8859-1"?>
<!-- Generator: Adobe Illustrator 19.0.0, SVG Export Plug-In . SVG Version: 6.00 Build 0)  -->
<svg xmlns="http://www.w3.org/2000/svg" xmlns:xlink="http://www.w3.org/1999/xlink" version="1.1" id="Layer_1" x="0px" y="0px" viewBox="0 0 512.001 512.001" style="enable-background:new 0 0 512.001 512.001;" xml:space="preserve">
<path style="fill:#FFA591;" d="M312.015,504.417c18.391,0,33.3-14.909,33.3-33.3v-147.21v-18.118  c0-11.626-9.513-21.139-21.139-21.139l0,0c-11.626,0-21.139,9.513-21.139,21.139v18.118v-18.118  c0-11.626-9.513-21.139-21.139-21.139l0,0c-11.626,0-21.139,9.513-21.139,21.139v18.118v-18.118  c0-11.626-9.513-21.139-21.139-21.139l0,0c-11.626,0-21.139,9.513-21.139,21.139v18.118v-14.358V208.941  c0-11.598-9.489-21.087-21.087-21.087l0,0c-11.598,0-21.087,9.489-21.087,21.087v14.386v28.447v89.512v19.651v-28.975  c0-15.224-12.342-27.565-27.565-27.565h-10.901v88.29c0,8.908,1.666,17.738,4.914,26.032l33.551,85.697h108.923H312.015z"/>
<path style="fill:#FFDC5E;" d="M185.683,7.583h197.53c23.651,0,43.002,19.351,43.002,43.002v55.041  c0,23.651-19.351,43.002-43.002,43.002h-31.922H128.787c-23.651,0-43.002-19.351-43.002-43.002V50.585  c0-23.651,19.351-43.002,43.002-43.002h20.654h36.242V7.583z"/>
<g style="opacity:0.63;">
	<path style="fill:#FF8E76;" d="M236.573,475.111H213.43c-9.566,0-18.212-6.033-21.514-15.013l-15.925-43.32   c-1.445-3.931,0.57-8.289,4.502-9.734c3.932-1.45,8.289,0.569,9.734,4.5l15.925,43.32c1.116,3.038,4.041,5.079,7.278,5.079h23.144   c4.188,0,7.583,3.394,7.583,7.583C244.157,471.716,240.761,475.111,236.573,475.111z"/>
</g>
<g style="opacity:0.63;">
	<path style="fill:#FF8E76;" d="M324.276,284.381L324.276,284.381c-2.146,0-4.217,0.329-6.172,0.932v13.507v140.189   c0,17.515-14.198,31.712-31.712,31.712h-25.502h-96.478l12.687,32.406h108.417h26.654c18.306,0,33.146-14.84,33.146-33.146V323.456   v-18.034C345.317,293.849,335.849,284.381,324.276,284.381z"/>
</g>
<path d="M285.237,496.833H181.489l-31.664-80.878c-2.915-7.444-4.392-15.273-4.392-23.268V311.98h3.318  c11.017,0,19.982,8.964,19.982,19.982v9.325v19.651c0,4.189,3.395,7.583,7.583,7.583s7.583-3.394,7.583-7.583v-19.651v-9.325  v-80.187c0-4.189-3.395-7.583-7.583-7.583s-7.583,3.394-7.583,7.583v51.293c-5.678-3.939-12.563-6.256-19.982-6.256h-10.901  c-4.188,0-7.583,3.394-7.583,7.583v88.29c0,9.894,1.829,19.583,5.436,28.797l33.551,85.697c1.138,2.906,3.94,4.819,7.062,4.819  h108.923c4.188,0,7.583-3.394,7.583-7.583C292.821,500.226,289.425,496.833,285.237,496.833z"/>
<path d="M324.178,277.067c-8.355,0-15.885,3.587-21.139,9.301c-5.253-5.713-12.784-9.301-21.139-9.301s-15.885,3.587-21.138,9.301  c-5.253-5.713-12.784-9.301-21.139-9.301c-4.9,0-9.515,1.236-13.555,3.408v-71.533c0-15.809-12.861-28.669-28.669-28.669  s-28.669,12.862-28.669,28.669v14.386c0,4.189,3.395,7.583,7.583,7.583c4.188,0,7.583-3.394,7.583-7.583v-14.386  c0-7.445,6.058-13.503,13.503-13.503s13.503,6.058,13.503,13.503v96.847v3.761v14.357c0,4.189,3.395,7.583,7.583,7.583  c4.188,0,7.583-3.394,7.583-7.583V309.55v-3.761c0-7.474,6.081-13.554,13.555-13.554s13.555,6.081,13.555,13.554v18.118  c0,4.189,3.395,7.583,7.583,7.583s7.583-3.394,7.583-7.583v-18.118c0-7.474,6.081-13.554,13.554-13.554  c7.474,0,13.555,6.081,13.555,13.554v18.118c0,4.189,3.395,7.583,7.583,7.583s7.583-3.394,7.583-7.583v-18.118  c0-7.474,6.081-13.554,13.555-13.554c7.474,0,13.555,6.081,13.555,13.554v18.118v147.211c0,14.18-11.537,25.717-25.718,25.717  c-4.188,0-7.583,3.394-7.583,7.583s3.395,7.583,7.583,7.583c22.544,0,40.885-18.341,40.885-40.884V323.907v-18.118  C352.9,289.951,340.015,277.067,324.178,277.067z"/>
<path d="M351.291,141.044H128.787c-19.53,0-35.419-15.889-35.419-35.418V50.585c0.001-19.529,15.889-35.418,35.419-35.418h20.654  c4.188,0,7.583-3.394,7.583-7.583S153.63,0,149.442,0h-20.654c-27.893,0-50.585,22.692-50.585,50.585v55.042  c0,27.893,22.693,50.585,50.586,50.585h222.504c4.188,0,7.583-3.394,7.583-7.583C358.876,144.438,355.479,141.044,351.291,141.044z"/>
<path d="M383.214,0h-197.53c-4.188,0-7.583,3.394-7.583,7.583s3.395,7.583,7.583,7.583h197.53c19.53,0,35.418,15.889,35.418,35.418  v55.042c0,19.529-15.888,35.418-35.418,35.418c-4.188,0-7.583,3.394-7.583,7.583c0,4.189,3.395,7.583,7.583,7.583  c27.893,0,50.585-22.692,50.585-50.585V50.585C433.799,22.692,411.106,0,383.214,0z"/>
<path d="M155.909,115.671c0,4.189,3.395,7.583,7.583,7.583h18.705c15.502,0,28.113-12.612,28.113-28.114  c0-9.172-4.417-17.331-11.234-22.466c3.395-4.279,5.432-9.684,5.432-15.558c0-13.828-11.25-25.078-25.077-25.078h-15.939  c-4.188,0-7.583,3.394-7.583,7.583V115.671z M182.197,108.087h-11.121V82.194h8.356h2.765c7.139,0,12.946,5.808,12.946,12.946  S189.336,108.087,182.197,108.087z M189.342,57.116c0,5.464-4.446,9.911-9.91,9.911h-8.356V47.206h8.356  C184.896,47.206,189.342,51.652,189.342,57.116z"/>
<path d="M230.095,32.039c-4.188,0-7.583,3.394-7.583,7.583v55.332c0,15.605,12.695,28.299,28.299,28.299  c15.604,0,28.298-12.696,28.298-28.299V39.623c0-4.189-3.395-7.583-7.583-7.583s-7.583,3.394-7.583,7.583v55.332  c0,7.242-5.891,13.132-13.131,13.132c-7.242,0-13.132-5.891-13.132-13.132V39.623C237.678,35.434,234.283,32.039,230.095,32.039z"/>
<path d="M324.743,123.254c4.188,0,7.583-3.394,7.583-7.583V84.74l25.321-38.897c2.285-3.511,1.291-8.208-2.218-10.492  c-3.511-2.284-8.207-1.292-10.492,2.217l-20.192,31.02l-20.193-31.02c-2.285-3.51-6.984-4.503-10.492-2.217  c-3.511,2.284-4.504,6.982-2.218,10.492l25.32,38.897v30.93C317.16,119.86,320.555,123.254,324.743,123.254z"/>
<path d="M180.492,407.044c-3.931,1.445-5.946,5.803-4.502,9.734l15.925,43.32c3.301,8.98,11.946,15.013,21.514,15.013h23.144  c4.188,0,7.583-3.394,7.583-7.583s-3.395-7.583-7.583-7.583H213.43c-3.237,0-6.161-2.041-7.278-5.079l-15.925-43.32  C188.781,407.615,184.425,405.595,180.492,407.044z"/>
<g>
</g>
<g>
</g>
<g>
</g>
<g>
</g>
<g>
</g>
<g>
</g>
<g>
</g>
<g>
</g>
<g>
</g>
<g>
</g>
<g>
</g>
<g>
</g>
<g>
</g>
<g>
</g>
<g>
</g>
</svg>
